<svg xmlns="http://www.w3.org/2000/svg" fill="none" viewBox="0 0 112.21 112.21">
<g clip-path="url(#clip0_1_288)">
<path d="M112.213 55.9494C112.307 87.0841 87.5603 111.654 57.2447 112.201C25.3724 112.778 0.14628 87.5672 0.00201579 56.372C-0.142248 24.6166 25.2382 0.0134241 56.151 5.38725e-06C87.2147 -0.0134133 112.27 25.0427 112.213 55.9494ZM56.0268 109.389C84.8361 109.732 109.297 86.1515 109.495 56.5599C109.696 26.502 85.6547 2.75755 56.151 2.74078C26.3487 2.72401 3.29661 26.7301 2.76316 55.0302C2.19282 85.4169 27.1505 109.701 56.0268 109.389Z" fill="#656262"/>
<path d="M76.7464 49.2232C77.5718 49.2668 78.2428 49.287 78.9104 49.3373C83.1209 49.6627 84.8353 52.6417 85.7982 56.1439C87.1368 61.0284 88.2507 65.9732 89.4249 70.9012C90.0624 73.5715 90.6931 76.2485 91.2198 78.9424C92.1458 83.6926 88.4855 87.7987 84.6374 88.6709C78.7527 90.0061 73.6733 86.0241 73.6699 79.9856C73.6632 71.3104 73.6699 62.6352 73.6699 53.9634C73.6699 53.4971 73.6699 53.0342 73.6699 52.3565C72.5628 52.3565 71.516 52.2928 70.4861 52.4035C70.2445 52.4303 69.8989 53.0509 69.8889 53.4065C69.8285 55.3623 69.8587 57.3181 69.8587 59.2739C69.8587 68.6301 69.8587 77.9829 69.8587 87.3391C69.8587 87.8356 69.8587 88.3355 69.8587 88.9661C71.7308 88.9661 73.4586 88.9661 75.2736 88.9661C75.2736 90.3046 75.2736 91.509 75.2736 92.8106C62.5113 92.8106 49.7858 92.8106 36.9933 92.8106C36.9933 91.566 36.9933 90.3919 36.9933 89.0332C38.711 89.0332 40.4254 89.0332 42.3176 89.0332C42.3176 88.3153 42.3176 87.7819 42.3176 87.2452C42.3176 65.943 42.3176 44.6374 42.3176 23.3352C42.3176 20.3327 43.4751 19.1653 46.4476 19.1653C52.9965 19.1653 59.5455 19.162 66.0944 19.1653C68.6308 19.1653 69.8318 20.3596 69.8553 22.8789C69.8553 22.9628 69.8553 23.05 69.8553 23.1339C69.8788 25.0025 69.3823 27.0958 70.0667 28.6758C70.7914 30.3498 72.5125 31.7051 74.0323 32.9027C76.2398 34.6438 77.0417 36.7069 76.7968 39.4947C76.5552 42.2388 76.7431 45.0165 76.7431 47.7807C76.7464 48.237 76.7464 48.6932 76.7464 49.2232ZM45.6022 43.4633C52.7181 43.4633 59.7031 43.4633 66.705 43.4633C66.705 36.405 66.705 29.4541 66.705 22.4495C59.6461 22.4495 52.6577 22.4495 45.6022 22.4495C45.6022 29.4709 45.6022 36.4218 45.6022 43.4633ZM76.7464 66.8252C76.7464 71.2467 76.6995 75.6682 76.7599 80.0896C76.8102 83.7563 79.6049 86.1415 83.2283 85.7389C86.5363 85.3699 88.7942 82.2132 88.0292 78.8048C86.6604 72.706 85.2178 66.6206 83.7382 60.5453C83.2719 58.6231 82.6948 56.7109 81.9668 54.8759C81.3092 53.2187 79.9907 52.333 78.1019 52.3095C77.045 52.2961 76.7095 52.6249 76.723 53.6883C76.7733 58.0662 76.7464 62.4474 76.7464 66.8252ZM73.6666 49.2266C73.6666 48.341 73.6666 47.5425 73.6666 46.7475C73.6666 44.1006 73.6666 44.1006 71.1134 43.6914C71.1134 41.3901 71.0765 39.0619 71.1336 36.7405C71.1571 35.8146 70.8148 35.2611 69.9459 34.8451C69.9459 39.6993 69.9459 44.4294 69.9459 49.2266C71.1705 49.2266 72.3045 49.2266 73.6666 49.2266Z" fill="#656262"/>
</g>
<defs>
<clipPath id="clip0_1_288">
<rect width="112.211" height="112.211" fill="white"/>
</clipPath>
</defs>
</svg>