<svg xmlns="http://www.w3.org/2000/svg" fill="none" viewBox="-0.01 -0.01 147.2 112.22">
<g clip-path="url(#clip0_1_259)">
<path d="M131.189 109.775C131.116 110.117 131.069 110.345 131.002 110.657C129.297 109.668 127.652 108.718 126.007 107.766C123.642 106.394 121.271 105.035 118.916 103.646C117.747 102.958 117.194 101.922 117.399 100.543C117.603 99.1609 118.578 98.0606 119.867 97.7352C120.839 97.4903 121.676 97.8392 122.49 98.3122C125.652 100.147 128.814 101.979 131.98 103.81C132.268 103.978 132.566 104.133 132.851 104.29C136.428 99.8419 140.904 84.1856 140.639 76.9059C140.297 76.9059 139.949 76.9059 139.597 76.9059C135.789 76.9059 131.977 76.9294 128.168 76.8959C125.743 76.8758 124.299 75.034 124.878 72.7898C125.244 71.3707 126.369 70.5052 127.947 70.4985C131.819 70.4817 135.691 70.4918 139.56 70.4918C139.895 70.4918 140.227 70.4918 140.699 70.4918C140.207 60.3439 137.607 50.877 132.851 41.8932C132.556 42.0508 132.295 42.1783 132.044 42.3259C128.67 44.3488 125.314 46.3985 121.927 48.3945C119.743 49.6827 117.415 48.5757 116.976 46.0966C116.755 44.852 117.308 43.7215 118.584 42.9432C121.971 40.8867 125.371 38.8471 128.764 36.8008C128.975 36.6733 129.18 36.5424 129.511 36.3345C123.971 28.0685 116.97 21.4028 108.441 16.1426C108.257 16.4513 108.083 16.723 107.929 17.0048C106.07 20.4366 104.224 23.8785 102.345 27.3003C101.347 29.1185 99.5076 29.615 97.816 28.5818C96.255 27.6291 95.8095 25.9685 96.7173 24.2643C98.5429 20.8493 100.402 17.451 102.244 14.0426C102.402 13.7508 102.546 13.4488 102.747 13.053C94.5533 9.12129 85.9814 6.95082 76.8299 6.51471C76.8299 6.92733 76.8299 7.25609 76.8299 7.58485C76.8299 11.3991 76.85 15.2167 76.8232 19.031C76.8064 21.5101 74.9507 22.9526 72.6628 22.3253C71.2492 21.9362 70.4285 20.8325 70.4218 19.2222C70.4084 15.3442 70.4185 11.4662 70.4152 7.59156C70.4152 7.25945 70.4152 6.93069 70.4152 6.51471C60.2554 7.00449 50.7991 9.61443 41.8285 14.3848C42.465 15.4516 43.0579 16.4479 43.6541 17.4409C45.2486 20.1045 46.8531 22.7648 48.4342 25.4385C49.0606 26.4985 49.141 27.6056 48.4677 28.6724C47.7743 29.766 46.7493 30.3162 45.4462 30.286C44.2035 30.2558 43.4196 29.5278 42.82 28.5248C40.8303 25.2003 38.8372 21.8791 36.8441 18.558C36.69 18.2997 36.5192 18.0481 36.3048 17.716C28.031 23.2915 21.3918 30.3329 16.183 38.8572C17.6032 39.6321 18.9733 40.3802 20.3433 41.1283C22.6379 42.3762 24.9358 43.6141 27.2237 44.8688C29.0292 45.8584 29.5852 47.5995 28.6574 49.2969C27.7228 51.0011 25.991 51.4875 24.1587 50.5046C20.8558 48.7333 17.5697 46.9319 14.277 45.1438C13.9286 44.956 13.5769 44.7715 13.2352 44.5903C10.398 48.1496 6.26105 64.2487 6.59602 70.4884C6.91425 70.4884 7.24252 70.4884 7.5708 70.4884C11.4431 70.4884 15.3154 70.475 19.1843 70.4952C21.6765 70.5052 23.1437 72.7461 22.1823 75.0374C21.7703 76.017 21.0434 76.6309 19.9883 76.802C19.536 76.8758 19.0704 76.8992 18.6115 76.8992C14.9536 76.9059 11.299 76.9026 7.64114 76.9026C7.30952 76.9026 6.97789 76.9026 6.53908 76.9026C6.96114 86.7184 9.63423 95.776 14.2904 104.357C17.2817 102.626 20.206 100.939 23.127 99.2515C23.7668 98.8825 24.3932 98.4967 25.043 98.1478C26.7447 97.2286 28.4664 97.6949 29.4044 99.3119C30.349 100.942 29.9169 102.7 28.2487 103.68C24.3027 105.998 20.3333 108.276 16.3069 110.61C16.1863 110.359 16.0791 110.131 15.9719 109.903C14.9704 111.781 13.6673 112.492 11.9991 112.083C10.9942 111.838 10.3812 111.154 9.87541 110.305C5.54756 103.049 2.57299 95.2728 1.15271 86.9398C-1.33615 72.3201 0.134387 58.1164 6.05672 44.4796C12.3207 30.0478 22.2225 18.719 35.6416 10.5571C45.2888 4.68976 55.7902 1.27134 67.0621 0.295131C81.4559 -0.95281 95.1328 1.64036 107.835 8.51745C128.372 19.6382 141.041 36.7605 145.848 59.6662C146.735 63.8898 147.107 68.1804 147.178 72.4979C147.405 86.0407 144.28 98.7013 137.309 110.359C135.973 112.596 133.273 112.841 131.812 110.862C131.601 110.577 131.451 110.235 131.189 109.775Z" fill="#656262"/>
<path d="M73.5275 83.2898C69.4274 83.263 65.7795 80.5792 64.4899 76.6442C63.217 72.7628 64.5736 68.4756 67.8497 66.0199C71.2295 63.4872 75.5775 63.3932 79.0143 65.8354C79.5838 66.238 79.9623 66.2246 80.5452 65.8757C89.8909 60.317 99.2467 54.7784 108.606 49.2432C110.8 47.9449 113.138 48.8608 113.657 51.2023C113.969 52.6079 113.362 53.8659 111.909 54.7281C107.47 57.3615 103.029 59.9849 98.5868 62.6149C93.6728 65.5268 88.7654 68.4521 83.8346 71.3371C83.2383 71.686 83.0776 72.0315 83.1345 72.7125C83.6202 78.5329 79.2421 83.3267 73.5275 83.2898ZM70.429 73.7323C70.4491 75.507 71.8258 76.879 73.5978 76.8891C75.3933 76.8992 76.8638 75.4466 76.8035 73.6686C76.7533 72.1825 75.4703 70.4213 73.5107 70.4984C71.7521 70.5689 70.4089 71.9409 70.429 73.7323Z" fill="#656262"/>
<path d="M73.5868 99.3187C79.9747 99.3187 86.3627 99.3086 92.7506 99.3254C95.1792 99.3321 96.6598 101.419 95.8659 103.673C95.4907 104.74 94.7504 105.424 93.6283 105.642C93.2397 105.716 92.8377 105.75 92.4391 105.75C79.8776 105.756 67.3194 105.756 54.7579 105.753C52.5471 105.753 51.2474 104.612 51.1838 102.65C51.1168 100.661 52.4332 99.3287 54.5168 99.3254C60.4759 99.3153 66.4318 99.322 72.3909 99.322C72.7896 99.3187 73.1882 99.3187 73.5868 99.3187Z" fill="#656262"/>
</g>
<defs>
<clipPath id="clip0_1_259">
<rect width="147.194" height="112.211" fill="white"/>
</clipPath>
</defs>
</svg>